<?xml version="1.0" encoding="UTF-8" standalone="no"?>
<svg
   width="580.2569"
   height="434.74692"
   version="1.1"
   id="svg181"
   sodipodi:docname="Hadoop_logo_new.svg"
   inkscape:version="1.1.2 (0a00cf5339, 2022-02-04)"
   xmlns:inkscape="http://www.inkscape.org/namespaces/inkscape"
   xmlns:sodipodi="http://sodipodi.sourceforge.net/DTD/sodipodi-0.dtd"
   xmlns="http://www.w3.org/2000/svg"
   xmlns:svg="http://www.w3.org/2000/svg"
   xmlns:rdf="http://www.w3.org/1999/02/22-rdf-syntax-ns#"
   xmlns:cc="http://creativecommons.org/ns#"
   xmlns:dc="http://purl.org/dc/elements/1.1/">
  <sodipodi:namedview
     id="namedview183"
     pagecolor="#ffffff"
     bordercolor="#666666"
     borderopacity="1.0"
     inkscape:pageshadow="2"
     inkscape:pageopacity="0.0"
     inkscape:pagecheckerboard="0"
     showgrid="false"
     fit-margin-top="0"
     fit-margin-left="0"
     fit-margin-right="0"
     fit-margin-bottom="0"
     inkscape:zoom="0.2658"
     inkscape:cx="1053.4236"
     inkscape:cy="-351.76825"
     inkscape:window-width="1920"
     inkscape:window-height="1025"
     inkscape:window-x="0"
     inkscape:window-y="0"
     inkscape:window-maximized="1"
     inkscape:current-layer="svg181" />
  <title
     id="title2">Hadoop logo</title>
  <defs
     id="defs65">
    <linearGradient
       id="e-340"
       x1="-9035.5"
       x2="-6797.2002"
       y1="638.44"
       y2="638.44"
       gradientTransform="matrix(-0.21591,0.044142,-0.044142,-0.21591,-974.83,437.49)"
       gradientUnits="userSpaceOnUse">
      <stop
         stop-color="#282662"
         offset="0"
         id="stop4" />
      <stop
         stop-color="#68308f"
         offset=".095484"
         id="stop6" />
      <stop
         stop-color="#a22367"
         offset=".7882"
         id="stop8" />
      <stop
         stop-color="#cd2032"
         offset=".9487"
         id="stop10" />
    </linearGradient>
    <linearGradient
       id="i-321"
       x1="-5167.1001"
       x2="-4570.1001"
       y1="697.54999"
       y2="1395.6"
       gradientTransform="matrix(-0.21591,0.044142,-0.044142,-0.21591,-974.83,437.49)"
       gradientUnits="userSpaceOnUse">
      <stop
         stop-color="#f69923"
         offset="0"
         id="stop13" />
      <stop
         stop-color="#f79a23"
         offset=".3123"
         id="stop15" />
      <stop
         stop-color="#e97826"
         offset=".8383"
         id="stop17" />
    </linearGradient>
    <linearGradient
       id="h-133"
       x1="-9585.2998"
       x2="-5326.2002"
       y1="620.5"
       y2="620.5"
       gradientTransform="matrix(-0.21591,0.044142,-0.044142,-0.21591,-974.83,437.49)"
       gradientUnits="userSpaceOnUse">
      <stop
         stop-color="#9e2064"
         offset=".3233"
         id="stop20" />
      <stop
         stop-color="#c92037"
         offset=".6302"
         id="stop22" />
      <stop
         stop-color="#d12c3e"
         offset=".7514"
         id="stop24" />
      <stop
         stop-color="#e97826"
         offset="1"
         id="stop26" />
    </linearGradient>
    <linearGradient
       id="f-652"
       x1="-9346.0996"
       x2="-5087"
       y1="580.82001"
       y2="580.82001"
       gradientTransform="matrix(-0.21591,0.044142,-0.044142,-0.21591,-974.83,437.49)"
       gradientUnits="userSpaceOnUse">
      <stop
         stop-color="#9e2064"
         offset=".3233"
         id="stop29" />
      <stop
         stop-color="#c92037"
         offset=".6302"
         id="stop31" />
      <stop
         stop-color="#d12339"
         offset=".7514"
         id="stop33" />
      <stop
         stop-color="#e97826"
         offset="1"
         id="stop35" />
    </linearGradient>
    <linearGradient
       id="d-164"
       x1="-9346.0996"
       x2="-5087"
       y1="1021.6"
       y2="1021.6"
       gradientTransform="matrix(-0.21591,0.044142,-0.044142,-0.21591,-974.83,437.49)"
       gradientUnits="userSpaceOnUse">
      <stop
         stop-color="#9e2064"
         offset=".3233"
         id="stop38" />
      <stop
         stop-color="#cb2239"
         offset=".6302"
         id="stop40" />
      <stop
         stop-color="#ce2436"
         offset=".7514"
         id="stop42" />
      <stop
         stop-color="#e97826"
         offset="1"
         id="stop44" />
    </linearGradient>
    <linearGradient
       id="c-654"
       x1="-9610.2998"
       x2="-5351.2002"
       y1="999.72998"
       y2="999.72998"
       gradientTransform="matrix(-0.21591,0.044142,-0.044142,-0.21591,-974.83,437.49)"
       gradientUnits="userSpaceOnUse">
      <stop
         stop-color="#9e2064"
         offset=".3233"
         id="stop47" />
      <stop
         stop-color="#c92037"
         offset=".6302"
         id="stop49" />
      <stop
         stop-color="#cf2739"
         offset=".7514"
         id="stop51" />
      <stop
         stop-color="#e97826"
         offset="1"
         id="stop53" />
    </linearGradient>
    <linearGradient
       id="g-624"
       x1="-9071.2002"
       x2="-6533.2002"
       y1="1047.7"
       y2="1047.7"
       gradientTransform="matrix(-0.21591,0.044142,-0.044142,-0.21591,-974.83,437.49)"
       gradientUnits="userSpaceOnUse">
      <stop
         stop-color="#282662"
         offset="0"
         id="stop56" />
      <stop
         stop-color="#662e8d"
         offset=".095484"
         id="stop58" />
      <stop
         stop-color="#a22367"
         offset=".7882"
         id="stop60" />
      <stop
         stop-color="#cd2032"
         offset=".9487"
         id="stop62" />
    </linearGradient>
  </defs>
  <path
     d="m 67.118287,272.89447 c -0.95453,2.6008 -1.91343,5.20638 -2.86915,7.80837 l -5.49501,-2.01481 c 0.95572,-2.60199 1.91502,-5.20757 2.86915,-7.80837 z m -2.86915,7.80837 c -1.42206,3.86901 -2.8465,7.74318 -4.26776,11.61298 l -5.49461,-2.01481 c 1.42087,-3.8698 2.84531,-7.74437 4.26736,-11.61298 z m -4.26776,11.61298 -0.68737,1.06386 -2.05973,-2.07126 z m -0.68737,1.06386 c -3.11922,3.08781 -6.24201,6.18118 -9.36242,9.27138 l -4.11986,-4.14252 c 3.12041,-3.0902 6.2428,-6.18357 9.36242,-9.27138 z m -9.36242,9.27138 c -2.76659,2.74074 -5.53675,5.48467 -8.30453,8.22422 l -4.11986,-4.14252 c 2.76778,-2.73956 5.53754,-5.48348 8.30453,-8.22422 z m -8.30453,8.22422 c -1.26541,1.2519 -1.69477,1.66575 -2.07563,2.0331 l -4.05228,-4.23516 c 0.8452,-0.8134 1.77826,-1.71266 2.00805,-1.94046 z m -2.07563,2.0331 c -3.74815,3.6082 -4.48959,4.3238 -3.41023,10.77095 l -5.76971,0.96248 c -1.59102,-9.49878 -0.48104,-10.56939 5.12766,-15.96859 z m -3.41023,10.77095 c 0.87025,5.19088 2.59643,10.4875 5.30577,15.643 l -5.19724,2.72484 c -2.99001,-5.68862 -4.90344,-11.58475 -5.87824,-17.40536 z m 5.30577,15.643 c 2.51533,4.78855 5.86354,9.42563 10.13686,13.71127 l -4.14292,4.12026 c -4.74204,-4.75595 -8.43612,-9.86294 -11.19118,-15.10669 z m 10.13686,13.71127 c 5.46757,5.48149 14.39308,12.27332 23.68235,15.80281 l -2.06013,5.47274 c -10.15157,-3.85747 -19.84634,-11.22337 -25.76514,-17.15529 z m 23.68235,15.80281 c 6.46186,2.4557 13.04736,3.3009 18.55031,0.86548 l 2.3575,5.35745 c -7.09874,3.14188 -15.19455,2.20444 -22.96794,-0.75019 z m 18.55031,0.86548 5.65363,-2.50261 -1.64747,5.96014 -2.82741,-0.77881 z m 4.00616,3.45753 c -0.73468,2.65845 -1.59459,5.38449 -2.58291,8.11847 l -5.51727,-1.99254 c 0.93744,-2.59524 1.75203,-5.17378 2.44536,-7.68315 z m -2.58291,8.11847 c -0.92312,2.55032 -1.9675,5.13522 -3.14188,7.71058 l -5.33479,-2.42747 c 1.0897,-2.3905 2.07564,-4.83347 2.9594,-7.27565 z m -3.14188,7.71058 c -4.95075,10.85445 0.23774,16.5701 8.279483,20.23834 l -2.427473,5.33479 c -11.00313,-5.01794 -18.07245,-12.90106 -11.1868,-28.0006 z m 8.279483,20.23834 c 5.1388,2.34279 11.35735,3.96243 17.13621,5.46797 l -1.46499,5.65482 c -6.07185,-1.58108 -12.60488,-3.2838 -18.098693,-5.788 z m 17.13621,5.46797 c 1.52701,0.39556 3.00671,0.78199 4.06938,1.06942 l -1.48766,5.65482 c -1.56517,-0.42379 -2.80713,-0.7482 -4.04671,-1.06942 z m 4.06938,1.06942 c 6.96874,1.88401 19.01664,5.33916 29.84644,6.02574 l -0.36734,5.85996 c -11.34821,-0.71918 -23.7726,-4.28564 -30.96676,-6.23088 z m 29.84644,6.02574 c 9.7874,0.61979 18.51334,-1.02887 20.53252,-8.52318 l 5.65522,1.48765 c -2.99677,11.1216 -14.16767,13.68106 -26.55508,12.89549 z m 20.53252,-8.52318 c 1.06863,-3.96998 1.68842,-7.03633 1.94643,-10.07683 l 5.85996,0.47985 c -0.27948,3.30329 -0.96566,6.67932 -2.15117,11.08463 z m 1.94643,-10.07683 c 0.2592,-3.05521 0.15306,-6.02136 -0.22303,-9.78303 l 5.81464,-0.54982 c 0.42379,4.23515 0.54664,7.52333 0.26835,10.8127 z m -0.22303,-9.78303 0.22859,-1.46499 2.67873,1.19028 z m 0.22859,-1.46499 c 3.94216,-8.80028 5.56697,-11.17686 8.43612,-15.37902 l 4.8299,3.29732 c -2.65249,3.88451 -4.15485,6.08419 -7.90856,14.46186 z M 182.35,376.56289 c 0.293,-0.42936 0.54346,-0.79471 1.28132,-1.88997 l 4.85256,3.27267 c -0.18606,0.27709 -0.7967,1.1708 -1.30398,1.91462 z m 1.28132,-1.88997 c 2.23704,-3.31879 3.26591,-5.53556 3.59509,-7.82746 l 5.79238,0.80226 c -0.47111,3.28142 -1.76833,6.19232 -4.53491,10.29787 z m 3.59509,-7.82746 c 0.34349,-2.4072 -0.002,-5.28073 -0.52398,-9.67252 l 5.81464,-0.66511 c 0.57248,4.82235 0.95453,7.97535 0.50172,11.13989 z m -0.52398,-9.67252 c -0.14312,-1.20022 -0.26159,-2.14918 -0.34388,-2.76897 l 5.79237,-0.73229 c 0.17572,1.3171 0.29658,2.24698 0.36615,2.83615 z m -0.34388,-2.76897 c -0.0652,-0.49694 -0.21071,-1.49639 -0.41346,-2.88823 l 5.79238,-0.84759 c 0.0902,0.62336 0.2266,1.59578 0.41345,3.00353 z m -0.41346,-2.88823 -0.57129,-3.90837 3.9024,0.58838 -0.43492,2.89619 z m 3.33111,-3.31999 c 8.28863,1.24634 16.4226,1.86295 24.51404,1.91582 l -0.0227,5.85996 c -8.36496,-0.0541 -16.7808,-0.69294 -25.36123,-1.9834 z m 24.51404,1.91582 c 8.11608,0.0517 16.18844,-0.46076 24.32917,-1.47055 l 0.68738,5.81503 c -8.38881,1.04001 -16.69771,1.56836 -25.03921,1.51548 z m 24.32917,-1.47055 1.80888,5.44849 -1.46499,-2.54117 z m 1.80888,5.44849 c -4.72971,2.75545 -9.45068,5.18292 -15.47404,8.27749 l -2.67753,-5.2199 c 5.94464,-3.05402 10.60319,-5.45008 15.22159,-8.13994 z m -15.47404,8.27749 c -0.43929,0.22541 -0.89012,0.45758 -1.34413,0.69055 l -2.67793,-5.21989 c 0.45441,-0.23297 0.90523,-0.46514 1.34453,-0.69056 z m -1.34413,0.69055 c -6.19033,3.18243 -6.24678,9.86414 -4.06063,16.8623 l -5.58485,1.7401 c -2.99557,-9.58784 -2.59643,-18.90533 6.96755,-23.82229 z m -4.06063,16.8623 c 2.48035,7.94275 7.74756,16.30094 11.05402,21.39601 l -4.89986,3.18243 c -3.48338,-5.36779 -9.03881,-14.19272 -11.73901,-22.83834 z m 11.05402,21.39601 c 6.92064,10.6664 13.4477,19.64677 20.9428,24.24012 l -3.04487,4.99011 c -8.47548,-5.19406 -15.46927,-14.75287 -22.79779,-26.0478 z m 20.9428,24.24012 c 7.08165,4.3409 15.36232,4.74323 26.32967,-1.19108 l 2.77016,5.17458 c -13.10619,7.09318 -23.25657,6.4551 -32.1447,1.00661 z m 26.32967,-1.19108 c 5.18292,-2.80514 6.92263,-5.85121 9.26542,-9.95636 l 5.105,2.88466 c -2.83059,4.9587 -4.93246,8.63688 -11.60026,12.24628 z m 9.26542,-9.95636 c 0.93226,-1.63316 1.95557,-3.42255 3.45316,-5.6596 l 4.85256,3.25002 c -1.19903,1.79058 -2.24619,3.62331 -3.20072,5.29424 z m 3.45316,-5.6596 1.01854,-0.94975 1.40774,2.57496 z m 1.01854,-0.94975 c 1.71067,-0.93903 9.01893,-6.9759 16.12642,-12.84938 l 3.73224,4.50986 c -7.3496,6.07425 -14.9103,12.31944 -17.04358,13.48944 z m 16.12642,-12.84938 c 3.65909,-3.02261 7.26889,-6.00546 9.14177,-7.51776 l 3.68494,4.57744 c -3.42812,2.77017 -6.24877,5.09944 -9.09447,7.45018 z m 9.14177,-7.51776 2.2446,-1.81325 1.853,2.22472 -2.25533,1.87725 z m 4.0976,0.41147 c 1.16842,1.40177 3.01665,2.26844 5.5284,2.86994 l -1.3501,5.70015 c -3.74576,-0.89569 -6.62048,-2.33484 -8.68856,-4.81519 z m 5.5284,2.86994 c 2.88387,0.68976 6.67256,1.02808 11.26273,1.35805 l -0.41266,5.85996 c -4.81081,-0.34706 -8.82691,-0.71082 -12.20017,-1.51786 z m 11.26273,1.35805 c 3.59947,0.2604 15.09835,0.25484 22.52388,0.25245 v 5.85996 c -7.58654,0.004 -19.3335,0.009 -22.93654,-0.25245 z m 22.52388,0.25245 c 2.35512,-10e-4 4.31148,-10e-4 5.48228,0.006 l -0.0239,5.85996 c -1.16881,-0.007 -3.11604,-0.006 -5.46002,-0.006 v -5.85996 z m 5.48228,0.006 c 6.91945,0.0429 12.40531,-0.26478 16.02743,-2.31695 l 2.88466,5.105 c -4.7802,2.70814 -11.10252,3.12041 -18.93435,3.07191 l 0.0238,-5.85996 z m 16.02743,-2.31695 c 3.30965,-1.87527 5.29862,-5.56935 5.79357,-12.47727 l 5.85996,0.41266 c -0.65716,9.16842 -3.675,14.28376 -8.76887,17.16961 z m 5.79357,-12.47727 c 0.25324,-3.54857 0.31328,-5.66516 -0.0859,-7.4792 l 5.7228,-1.26025 c 0.56453,2.56741 0.51364,5.07797 0.22303,9.15211 z m -0.0859,-7.4792 c -0.39875,-1.81683 -1.33857,-3.70004 -3.07986,-6.79461 l 5.12767,-2.8624 c 2.00805,3.56806 3.11126,5.83213 3.67499,8.39676 z m -3.07986,-6.79461 -0.36615,-1.36242 2.92998,-0.0688 z m -0.36615,-1.36242 c -0.1129,-4.20454 -0.2278,-8.41227 -0.33832,-12.61681 l 5.86036,-0.13755 c 0.11012,4.20454 0.22542,8.41266 0.33792,12.6172 z m -0.33832,-12.61681 c -0.11131,-4.20454 -0.2262,-8.41266 -0.33673,-12.61601 l 5.85997,-0.13755 c 0.11052,4.20335 0.22541,8.41147 0.33712,12.61601 z m -0.33673,-12.61601 c -0.12165,-4.51463 -0.60984,-8.13755 -1.50236,-11.66029 l 5.67749,-1.42006 c 1.00422,3.96124 1.55086,7.98529 1.68484,12.9428 z m -1.50236,-11.66029 c -0.90046,-3.54897 -2.24141,-7.09874 -4.05227,-11.41141 l 5.40237,-2.26726 c 1.90469,4.5357 3.32913,8.32122 4.32739,12.25861 z m -4.05227,-11.41141 c -1.28252,-3.04925 -2.38136,-6.01223 -3.45754,-8.91637 l 5.49501,-2.01481 c 1.02569,2.76778 2.07245,5.59201 3.3649,8.66392 z m 2.03747,-10.94231 v 0.0111 l -2.74751,1.00741 z m -5.49501,2.03747 c -1.6745,-4.51662 -3.29971,-8.89847 -5.68424,-13.60672 l 5.24256,-2.63221 c 2.503,4.94121 4.1946,9.50077 5.93669,14.20146 z m -5.68424,-13.60672 -0.26358,-1.82 2.88506,0.5037 z m -0.26358,-1.82 c 0.28863,-1.63395 0.53074,-3.15063 0.71441,-4.52458 l 5.79237,0.7327 c -0.23893,1.7882 -0.48581,3.37961 -0.73706,4.79928 z m 0.71441,-4.52458 c 0.16578,-1.24752 0.33474,-2.80952 0.5037,-4.71619 l 5.85996,0.48025 c -0.12284,1.38587 -0.31645,3.05401 -0.57129,4.96864 z m 0.5037,-4.71619 0.54544,-6.12712 4.41088,4.24986 -2.02634,2.11738 z m 4.95632,-1.87726 c 2.86915,2.76301 5.74069,5.53079 8.60985,8.29539 l -4.05268,4.23475 c -2.86915,-2.7642 -5.7403,-5.53198 -8.60945,-8.29538 z m 8.60985,8.29539 6.43681,6.20225 -4.05228,4.23516 -6.43721,-6.20266 z m 6.43681,6.20225 c 4.64622,4.47647 8.89052,8.54346 13.60115,11.32237 l -2.9753,5.06008 c -5.27397,-3.11166 -9.76475,-7.41321 -14.67813,-12.14729 z m 13.60115,11.32237 c 4.53014,2.67316 9.63952,4.22283 16.27709,3.90916 l 0.27511,5.86035 c -7.94036,0.3753 -14.07424,-1.49202 -19.5275,-4.70943 z m 16.27709,3.90916 c 7.16275,-0.33673 14.89917,-3.41103 21.33042,-8.15545 l 3.4802,4.71501 c -7.32496,5.40356 -16.21985,8.90841 -24.53551,9.30079 z m 21.33042,-8.15545 c 6.13745,-4.52696 11.03056,-10.53322 13.01833,-17.06942 l 5.6099,1.69478 c -2.37459,7.8052 -8.06201,14.8618 -15.14803,20.08965 z m 13.01833,-17.06942 c 0.68539,-2.25612 1.37157,-4.51463 2.05576,-6.76956 l 5.6095,1.69477 c -0.68379,2.25493 -1.37037,4.51344 -2.05536,6.76957 z m 2.05576,-6.76956 c 0.79551,-2.62585 1.59539,-5.25489 2.39249,-7.87954 l 5.6095,1.69517 c -0.7967,2.62426 -1.59658,5.25369 -2.39249,7.87914 z m 2.39249,-7.87954 0.7637,-2.51295 2.57854,0.4878 -0.53749,2.87273 z m 3.34224,-2.02515 c 11.86543,2.24261 24.78676,3.02579 37.20439,1.7242 l 0.57248,5.81503 c -12.98335,1.36123 -26.47478,0.54426 -38.85186,-1.79416 z m 37.20439,1.7242 c 10.9097,-1.14377 21.43179,-3.91353 30.47657,-8.73906 l 2.7475,5.17458 c -9.71744,5.18531 -20.98574,8.15584 -32.65159,9.37951 z m 30.47657,-8.73906 c 13.24812,-7.07051 23.19773,-17.51388 30.36167,-29.92356 l 5.08234,2.90771 c -7.69786,13.3336 -18.40918,24.56572 -32.69651,32.19043 z m 30.36167,-29.92356 v -0.0119 l 2.54117,1.46499 -2.54117,-1.45386 z m 0,-0.0119 c 8.18605,-14.1792 12.77145,-30.9095 14.51712,-48.14391 l 5.81503,0.54982 c -1.83034,18.06689 -6.64672,35.62252 -15.24981,50.52526 z m 14.51712,-48.14391 c 1.42205,-14.04482 0.63449,-33.19942 -2.30582,-51.72588 l 5.77011,-0.91517 c 3.01546,18.99875 3.81812,38.6988 2.35074,53.18888 z m -2.30582,-51.72588 c -2.59286,-16.3407 -6.85822,-32.143509 -12.74442,-43.409029 l 5.19763,-2.70218 c 6.17681,11.82249 10.63022,28.262179 13.3169,45.198029 z M 558.67831,85.746311 c -0.46077,-0.88337 -1.22686,-1.84704 -2.21081,-2.81827 l 4.0976,-4.19023 c 1.41291,1.39662 2.55787,2.8624 3.31084,4.30632 z m -2.21081,-2.81827 c -2.51215,-2.47835 -6.24439,-4.82552 -10.10982,-6.15534 l 1.89992,-5.53993 c 4.69512,1.61487 9.23878,4.47727 12.3075,7.50504 z m -10.10982,-6.15534 c -3.58595,-1.23401 -7.19972,-1.57432 -9.78065,-0.22541 l -2.70218,-5.19724 c 4.16399,-2.17622 9.40854,-1.82796 14.38275,-0.11728 z m -9.78065,-0.22541 c -0.54067,0.28186 -1.04557,0.6492 -1.49401,1.1044 l -4.19023,-4.09759 c 0.89728,-0.90921 1.90111,-1.64071 2.98206,-2.20405 z m -1.49401,1.1044 c -2.39606,2.42867 -4.49873,5.49938 -6.60617,8.57805 l -4.8299,-3.29732 c 2.2764,-3.32674 4.54923,-6.64434 7.24584,-9.37832 z m -6.60617,8.57805 c -2.77215,4.0491 -5.55702,8.11608 -9.16205,11.19594 l -3.79983,-4.46454 c 3.04845,-2.60438 5.59638,-6.3255 8.13198,-10.02872 z m -9.16205,11.19594 c -4.41286,3.770809 -9.529,5.822989 -14.28018,7.728469 l -2.17502,-5.447299 c 4.32063,-1.73214 8.97242,-3.59946 12.65537,-6.74571 z m -14.28018,7.728469 c -0.8285,0.33156 -1.6411,0.65835 -2.15713,0.87025 l -2.21995,-5.42504 c 0.9104,-0.3741 1.55842,-0.634489 2.20206,-0.892509 z m -2.15713,0.87025 -2.79799,1.15291 -1.05949,-2.85802 2.74751,-1.00741 z m -3.85748,-1.70511 c -1.89435,-5.116139 -4.21925,-9.686029 -6.9103,-13.982009 l 4.96745,-3.11246 c 2.87949,4.59573 5.37892,9.51906 7.43786,15.079659 z m -6.9103,-13.982009 c -2.71927,-4.3417 -5.80231,-8.38643 -9.18789,-12.42081 l 4.4876,-3.75491 c 3.57243,4.25742 6.81767,8.51404 9.66774,13.06326 z m -9.18789,-12.42081 c -2.61552,-3.11485 -5.15351,-5.4477 -7.89385,-7.53447 l 3.54738,-4.64741 c 3.07429,2.3416 5.91522,4.95154 8.83407,8.42697 z m -7.89385,-7.53447 c -2.73518,-2.08398 -5.84327,-4.03677 -9.46976,-6.30641 l 3.11245,-4.96745 c 3.67182,2.29866 6.82364,4.27888 9.90469,6.62645 z m -9.46976,-6.30641 c -10.21677,-6.39746 -18.7801,-13.90965 -27.51637,-21.57412 l 3.84515,-4.41723 c 8.5522,7.50305 16.93544,14.85623 26.78367,21.0239 z m -27.51637,-21.57412 c -3.67818,-3.22496 -7.38896,-6.48094 -11.53745,-9.9011 l 3.73265,-4.53253 c 3.83918,3.16573 7.76345,6.60737 11.64995,10.0164 z m -11.53745,-9.9011 C 407.15301,16.644501 389.23123,8.9136412 370.1947,7.7146212 l 0.36734,-5.85996 c 20.31626,1.27893 39.31183,9.4232398 59.67698,26.2131798 z M 370.1947,7.7146212 c -19.17805,-1.20698 -39.67121,4.1639898 -64.00237,14.4053998 l -2.26766,-5.40237 C 329.07798,6.1299612 350.38692,0.58566122 370.56284,1.8546612 Z M 306.19233,22.120021 c -11.46668,4.82552 -19.95249,10.50301 -27.31561,17.31193 l -3.96005,-4.30472 c 7.85132,-7.26095 16.86787,-13.30021 29.008,-18.40958 z m -27.31561,17.31193 c -7.41877,6.86061 -13.79715,14.96556 -20.94956,24.53431 l -4.69274,-3.50246 c 7.32615,-9.80092 13.88739,-18.12771 21.68225,-25.33657 z m -20.94956,24.53431 -0.82731,1.10759 -1.37037,0.0712 -0.14869,-2.92998 z m -2.19768,1.17875 c -4.07494,0.2119 -7.48715,0.70447 -10.88029,2.06132 l -2.17502,-5.44769 c 4.10873,-1.6431 8.0811,-2.23148 12.75794,-2.47359 z m -10.88029,2.06132 c -3.44521,1.37674 -6.99617,3.68136 -11.34622,7.52095 l -3.8698,-4.39497 c 4.89669,-4.32182 8.98276,-6.95085 13.041,-8.57367 z m -11.34622,7.52095 c -3.35019,2.95582 -6.61491,5.984 -9.82,9.08413 l -4.07494,-4.21249 c 3.21622,-3.11127 6.54773,-6.19908 10.02514,-9.26661 z m -9.82,9.08413 -0.0111,0.0119 -2.02634,-2.11738 2.03747,2.10625 z m -0.0111,0.0119 c -3.17448,3.06992 -6.27461,6.19828 -9.32426,9.3819 l -4.23475,-4.05268 c 3.10013,-3.23649 6.2599,-6.42449 9.50673,-9.56398 z m -9.32426,9.3819 -1.65979,0.85872 -0.45759,-2.88506 z m -1.65979,0.85872 c -22.90473,3.64995 -41.46499,7.656109 -58.04303,14.077419 l -2.10545,-5.47235 c 16.94936,-6.564419 35.88371,-10.654069 59.23569,-14.375189 z m -58.04303,14.077419 c -16.43532,6.36605 -30.94011,15.14168 -45.85797,28.36714 l -3.8698,-4.39497 c 15.47284,-13.71803 30.53541,-22.82602 47.62312,-29.44452 z m -45.85797,28.36714 c -6.04482,5.35864 -11.257963,10.99875 -15.805193,16.95333 l -4.64742,-3.54738 c 4.79054,-6.27461 10.26089,-12.19699 16.582813,-17.80092 z m -15.805193,16.95333 c -4.54922,5.95697 -8.45838,12.26457 -11.89127,18.95185 l -5.2199,-2.65527 c 3.578,-6.96994 7.6744,-13.57134 12.46375,-19.84396 z m -11.89127,18.95185 -0.43493,0.62972 -2.17502,-1.95756 z m -0.43493,0.62972 c -3.3323,3.68176 -6.65785,7.41401 -10.22471,10.62466 l -3.91473,-4.37231 c 3.44363,-3.10132 6.61293,-6.65706 9.7894,-10.16707 z m -10.22471,10.62466 c -3.73901,3.3661 -7.79248,6.2285 -12.47727,8.033 l -2.10505,-5.47274 c 3.90916,-1.50555 7.39492,-3.98669 10.66759,-6.93257 z m -12.47727,8.033 h -0.0111 l -1.04119,-2.73637 z m -0.0111,0 c -3.75967,1.44471 -5.59757,2.16906 -7.67996,1.28688 l 2.26725,-5.40277 c 0.0946,0.0398 1.03921,-0.47667 3.32992,-1.35685 z m -7.67996,1.28688 -0.0115,-0.0119 1.14495,-2.68986 -1.13342,2.70139 z m -0.0115,-0.0119 c -2.1961,-0.93187 -2.80913,-2.73598 -4.16837,-6.36367 l 5.49501,-2.03747 c 0.77165,2.06212 0.75615,2.93356 0.96327,3.02142 z m -4.16837,-6.36367 -0.7641,-2.04065 1.76038,-1.32425 1.75122,2.34637 z m 0.99628,-3.3649 c 5.38448,-4.04592 5.89494,-12.10317 6.38513,-19.86344 l 5.85996,0.36734 c -0.57248,9.07419 -1.1708,18.49863 -8.74264,24.18844 z m 6.38513,-19.86344 c 0.0632,-1.01535 0.12841,-2.02475 0.18367,-2.79481 l 5.85996,0.41266 c -0.0767,1.06028 -0.1308,1.90787 -0.18367,2.74949 z m 0.18367,-2.79481 0.20832,-2.85882 2.85921,0.13517 -0.13755,2.92998 z m 3.06753,-2.72365 c 4.83347,0.22979 7.03553,3.64001 9.41092,7.31819 l -4.92252,3.16017 c -1.51787,-2.35075 -2.92641,-4.53134 -4.76351,-4.6184 z m 9.41092,7.31819 c 0.66273,1.02689 1.34573,2.08399 2.06808,2.99558 l -4.57784,3.64001 c -0.9104,-1.14973 -1.67212,-2.32848 -2.41276,-3.47542 z m 2.64056,5.44531 -1.34016,5.99632 -3.81016,-4.80604 2.28872,-1.82 z m -5.7228,-1.25985 c 0.98951,-4.42518 1.74805,-10.2279 0.67624,-14.97788 l 5.70014,-1.28252 c 1.30955,5.80152 0.46991,12.49436 -0.65358,17.52025 z m 0.67624,-14.97788 c -0.68061,-3.02023 -2.13885,-5.61666 -4.85017,-7.02082 l 2.67753,-5.2199 c 4.48283,2.32251 6.83357,6.34816 7.87278,10.9582 z m -4.85017,-7.02082 -2.31695,-1.20022 0.90801,-2.42827 2.74751,1.01854 z m -1.40894,-3.62849 c 0.43294,-1.15768 1.06307,-2.7646 1.71068,-4.41564 l 5.4477,2.1301 c -0.50688,1.29245 -1.01536,2.59206 -1.66337,4.32301 z m 1.71068,-4.41564 c 0.86349,-2.20405 1.75044,-4.46454 2.6835,-7.11981 l 5.53993,1.92257 c -0.83407,2.37221 -1.81882,4.88317 -2.77573,7.32734 z m 4.96109,-9.04358 4.91537,-0.85276 -1.65303,4.6991 -2.77017,-0.96129 z m 0.98475,5.77011 c -5.67391,0.98474 -18.16946,7.99642 -27.24008,17.41092 l -4.23515,-4.05228 c 9.89554,-10.27083 23.9507,-17.99373 30.49048,-19.12875 z m -27.24008,17.41092 c -3.28738,3.41222 -6.07424,7.09755 -7.83421,10.85325 l -5.31015,-2.44973 c 2.07445,-4.42678 5.23461,-8.64126 8.90921,-12.4558 z m -7.83421,10.85325 c -1.67928,3.58158 -2.44576,7.24743 -1.82796,10.80634 l -5.77011,0.98475 c -0.83726,-4.82314 0.1296,-9.63753 2.28792,-14.24082 z m -1.82796,10.80634 c 0.56015,3.23292 2.29667,6.48333 5.56696,9.63395 l -4.05267,4.23516 c -4.23913,-4.08528 -6.51474,-8.44288 -7.2844,-12.88436 z m 5.56696,9.63395 0.8126,1.41888 -2.83894,0.6989 z m 0.8126,1.41888 c 0.74383,3.02698 1.41093,5.58604 2.13646,7.89862 l -5.58485,1.7401 c -0.75615,-2.40958 -1.45266,-5.08155 -2.22909,-8.24132 z m 2.13646,7.89862 c 0.69413,2.21239 1.45148,4.20136 2.40163,6.178 l -5.28748,2.51732 c -1.06067,-2.20643 -1.91144,-4.44665 -2.699,-6.95522 z m 2.40163,6.178 c 2.10744,4.38344 5.44174,7.05223 9.2845,8.28624 l -1.78502,5.58485 c -5.31213,-1.7059 -9.90667,-5.36301 -12.78696,-11.35377 z m 9.2845,8.28624 c 4.48323,1.43915 9.69955,0.99826 14.57238,-0.90165 l 2.1301,5.44769 c -6.09213,2.37539 -12.70188,2.89619 -18.4875,1.03881 z m 14.57238,-0.90165 5.08831,-1.9846 -1.16206,5.32605 -2.8612,-0.6178 z m 3.92625,3.34145 c -1.38031,6.33225 -2.21318,12.96864 -2.49267,20.46374 l -5.85996,-0.20514 c 0.29181,-7.82626 1.1708,-14.79858 2.63023,-21.49381 z m -2.49267,20.46374 c -0.27828,7.49749 0.006,15.90896 0.85435,25.78979 l -5.86036,0.48025 c -0.8607,-10.02077 -1.14496,-18.65288 -0.85395,-26.47518 z m 0.85435,25.78979 c 0.21627,2.51533 0.47548,4.83228 0.77285,6.95085 l -5.79238,0.77762 c -0.36853,-2.62903 -0.65239,-5.05213 -0.84083,-7.24822 z m 0.77285,6.95085 c 0.32798,2.33484 0.72911,4.72415 1.19465,7.15281 l -5.74507,1.09964 c -0.4711,-2.4553 -0.88814,-4.94837 -1.24196,-7.47483 z m 1.19465,7.15281 -0.12523,1.55723 -2.7475,-1.00741"
     id="path120"
     style="stroke-width:3.97555" />
  <g
     fill-rule="evenodd"
     id="g175"
     transform="matrix(3.9755499,0,0,-3.9755499,-150.86509,677.56569)">
    <path
       d="m 91.737,146.33 -9.7039,-1.577 -8.8548,-3.8814 -7.5206,-4.7308 -7.1566,-8.7335 -4.0431,-4.282 -3.9093,-1.4409 -1.034,2.5271 1.8079,2.6096 0.4062,3.6802 1.211,-0.0488 1.3232,-1.2069 -0.3569,3.7488 -1.4667,0.9839 0.0445,1.4286 -3.4744,-1.9655 -3.1462,-3.712 -0.6559,-3.3176 1.3453,-2.6567 1.2549,-4.5133 2.5521,-1.2084 2.6847,0.1318 2.5455,1.4791 -1.698,-8.6122 1.698,-9.5825 -1.8692,-4.4246 -6.1223,-6.5965 1.0885,-3.941 2.9002,-4.5669 5.4688,-3.8486 2.9007,-0.3969 3.225,-0.1094 -2.012,-8.2601 7.3993,-3.0326 9.2188,-1.2129 3.1535,2.0619 0.2427,5.5797 3.5178,5.8224 0.2426,4.6094 8.4909,-0.6066 7.8843,0.7279 -7.8843,-4.7307 1.3343,-5.701 4.9731,-7.763 4.8521,-2.0622 3.8814,1.5769 1.577,3.1538 8.1269,6.1861 1.5769,-1.3343 12.736,-0.485 2.5473,2.0619 0.2426,3.6391 -0.849,1.5767 -0.6066,9.8251 -4.2454,8.4909 0.7276,3.7605 2.5475,-1.3343 7.1566,-6.6716 3.5175,-0.2424 3.8815,1.5769 3.8818,2.9109 1.9406,6.3077 11.402,-0.7277 6.914,2.6686 5.5797,5.2157 4.0028,7.5206 0.9706,8.8546 -0.8493,10.31 -2.1832,9.2185 -2.1836,2.9112 -3.0322,0.9706 -5.3373,-5.8224 -4.8518,-1.6982 -4.2455,7.0353 -4.2454,3.8815 -2.3049,1.4556 -9.2185,7.6419 -7.3993,4.0028 -7.3993,0.6066 -8.6119,-1.4556 -7.5206,-2.7899 -5.2158,-4.2454 -4.1241,-4.9734 -4.2454,-1.2129 z"
       fill="#feeb50"
       stroke="#1f1917"
       stroke-miterlimit="10"
       stroke-width="0.216"
       id="path122" />
    <g
       fill="#fdf7ba"
       id="g131">
      <path
         d="m 63.593,124.43 c -8.3123,-9.6948 -6.4658,-21.453 -4.1621,-32.973 -1.2294,3.1062 -2.4591,6.2121 -3.6884,9.3183 l -1.359,8.5422 c 0.1293,2.9121 0.2588,5.8241 0.3884,8.7361 1.1647,2.7825 2.3295,5.565 3.4942,8.3478 1.7473,2.5883 3.4946,5.1769 5.2419,7.7655 2.7178,2.2649 5.4357,4.5298 8.1535,6.7946 2.9767,1.2294 5.9536,2.4591 8.9303,3.6885 3.4943,0.453 6.9888,0.9059 10.483,1.3589 -3.2358,-3.6884 -6.4712,-7.3772 -9.707,-11.066 -7.7938,-2.5279 -12.39,-4.2304 -17.775,-10.513"
         id="path125" />
      <path
         d="m 102.72,153.97 c -5.7787,-5.6378 -8.9351,-9.8898 -12.612,-16.491 -2.6305,-4.7223 -5.5811,-9.2702 -8.3466,-13.926 -1.3989,-2.3568 -1.531,-4.3331 -1.9491,-7.0507 -1.3589,1.6178 -2.7178,3.2355 -4.0768,4.8532 0.6472,1.9415 1.2943,3.8829 1.9415,5.8241 2.2002,3.9475 4.4005,7.8951 6.6005,11.842 4.6593,4.5947 9.3186,9.1891 13.978,13.784 1.4882,0.3884 2.9766,0.7765 4.4651,1.1648"
         id="path127" />
      <path
         d="m 131.26,167.95 c -4.6281,-1.7353 -12.314,-2.3068 -12.848,-7.6189 -0.3798,-3.7724 0.2844,-5.6679 2.5583,-9.6591 -5.6163,5.8116 -7.0053,4.9122 -17.86,3.1062 1.5531,2.2003 3.1062,4.4005 4.6593,6.6008 2.7178,1.6823 5.436,3.365 8.1538,5.0474 3.4943,0.7766 6.9889,1.5531 10.483,2.3297 1.6177,0.0647 3.2355,0.1293 4.8532,0.1939"
         id="path129" />
    </g>
    <g
       fill="#edd749"
       id="g167">
      <path
         d="m 144.03,96.096 c 1.5409,-0.951 1.5078,-1.6401 1.2501,-2.2921 1.2155,0.4865 2.4307,0.9726 3.6462,1.4585 0.7875,1.0573 1.5747,2.1143 2.3621,3.1719 0.5845,1.5064 1.169,3.0127 1.7535,4.5193 -0.7469,0.5615 -1.4935,1.1231 -2.2405,1.6849 -3.2641,-0.4167 -6.5284,-0.8334 -9.7925,-1.2501 -0.243,-0.6599 -0.4862,-1.3198 -0.7294,-1.9794 0.0697,-0.9377 0.1392,-1.8751 0.2086,-2.8128 0.3124,-0.5556 0.6251,-1.1115 0.9375,-1.6668 0.4864,-0.2432 0.9725,-0.4864 1.4584,-0.7293 0.3824,-0.0349 0.7642,-0.0698 1.146,-0.1041"
         id="path133" />
      <path
         d="m 143.12,112.84 c -4.9085,-1.417 -4.8702,-1.8073 -6.3198,-6.677 1.9136,3.0702 3.3304,4.6196 6.3198,6.677"
         id="path135" />
      <path
         d="m 175.76,149.28 c -0.8725,-0.4031 -1.722,-0.5972 -2.2674,-1.3955 -1.1744,-1.7181 -2.1807,-3.1634 -4.1227,-4.3696 -0.978,-0.6077 -1.9897,-1.0012 -3.0269,-1.3243 -0.8603,-0.2676 -1.3768,-0.0287 -2.1092,-0.5548 0.4345,-0.0759 0.8688,-0.1519 1.3033,-0.2282 h 2.8735 c 1.1809,0.7294 2.3616,1.4587 3.5422,2.1878 0.6948,0.7294 1.389,1.4584 2.0835,2.1878 0.5745,1.1656 1.1491,2.3315 1.7237,3.4968"
         id="path137" />
      <path
         d="m 97.569,138.39 c -1.9313,-5.2841 -3.6184,-9.8139 -6.5441,-14.598 3.7488,4.0388 6.0211,7.4716 8.1681,12.038 0.8339,1.7736 0.9915,3.8551 3.3145,3.081 0.1043,-1.7711 0.4788,-3.5419 0.5831,-5.313 1.2552,8.9975 4.7945,12.76 13.022,16.252 -2.3267,-0.2781 -4.6534,-0.5556 -6.9798,-0.8334 -2.1878,-0.4864 -4.3755,-0.9723 -6.5633,-1.4584 -1.0766,-1.5628 -2.1532,-3.1255 -3.2295,-4.688 -0.5905,-1.4932 -1.1807,-2.9865 -1.7711,-4.4795"
         id="path139" />
      <path
         d="m 113.51,138.6 c 1.7742,-8.3511 4.3288,-16.366 5.4386,-24.849 0.7208,-5.5125 0.7996,-8.1609 -1.9741,-12.917 -3.0311,0.1959 -4.913,-0.146 -7.8449,-1.1066 -11.672,-3.8263 -18.366,-9.4519 -26.231,1.8833 2.5106,-1.1829 5.0215,-2.3661 7.5319,-3.5496 l 5.3694,1.0554 c 3.16,1.8405 6.3201,3.6808 9.4802,5.5213 2.4655,0.4864 4.9311,0.9723 7.3964,1.4584 0.7988,3.3336 1.5973,6.6674 2.3961,10.001 -0.5904,4.4105 -1.1809,8.8206 -1.771,13.231 -0.0692,2.0834 -0.1387,4.1669 -0.2084,6.2506 0.1392,1.0072 0.2781,2.0141 0.4167,3.0212"
         id="path141" />
      <path
         d="m 133.61,86.928 c -0.9805,-6.7847 2.2575,-10.432 0.917,-12.306 -0.3798,-0.5306 -0.8943,-1.4561 -1.4686,-1.7098 -2.0517,-0.9063 -4.8722,0.1695 -5.074,-0.3612 h -6.7717 c -0.9025,0.3824 -1.8054,0.7643 -2.7085,1.1461 1.389,1.6322 2.7782,3.2644 4.1672,4.8963 1.3541,2.9517 2.7085,5.9037 4.0629,8.8551 0.8683,2.9863 1.7365,5.9726 2.6042,8.9592 h 1.3544 c 0.9726,-3.1601 1.9448,-6.3201 2.9171,-9.4802"
         id="path143" />
      <path
         d="m 122.23,106.65 c 0.55,-3.0807 1.5052,-3.8126 2.9543,-6.7946 -0.9646,-4.8648 -2.514,-10.65 -4.3787,-14.943 -0.7863,-1.8102 -1.421,-2.8082 -2.8074,-4.2071 -2.3406,-2.3636 -4.7069,-4.4226 -7.3616,-6.4712 -1.9105,-1.4729 -3.2442,-0.7342 -5.6018,-0.4003 -1.0026,-1.8176 -1.2796,-2.8273 -3.1249,-3.75 -2.8381,-1.419 -5.3779,1.639 -7.6054,3.4376 1.6081,-2.5118 3.2162,-5.0235 4.824,-7.5353 1.1115,-1.0417 2.2227,-2.0835 3.3339,-3.1255 0.9374,-0.1386 1.8751,-0.2775 2.8128,-0.4167 1.2501,0.7642 2.5001,1.5282 3.7502,2.2921 0.6599,1.2501 1.3198,2.5002 1.9794,3.7502 1.389,1.0418 2.7783,2.0835 4.167,3.1255 1.7019,1.4584 3.4035,2.9169 5.1049,4.3753 1.0766,1.5282 2.1529,3.056 3.2295,4.5839 0.972,1.8057 1.9446,3.6116 2.9168,5.4173 1.2501,3.7502 2.5002,7.5007 3.7506,11.251 0.104,1.4241 0.2083,2.8477 0.3123,4.2712 -1.5627,0.6948 -3.1252,1.3893 -4.6879,2.0838 -1.146,1.0766 -2.4219,1.9791 -3.568,3.0554"
         id="path145" />
      <path
         d="m 84.859,84.949 c 5.258,0 10.811,0.2916 15.626,2.5001 1.3629,2.0446 2.708,3.7143 4.3756,5.5213 -1.5177,-2.8664 -1.9936,-4.4866 -2.3961,-7.7091 -0.5211,-0.7636 -1.0418,-1.5278 -1.5628,-2.2918 -3.9589,-0.1043 -7.9174,-0.2083 -11.876,-0.3126 -1.2849,0.1391 -2.5699,0.278 -3.8546,0.4167 -0.1388,0.1391 -0.2777,0.278 -0.4166,0.4167 0.0348,0.4864 0.0697,0.9725 0.1043,1.4587"
         id="path147" />
      <path
         d="m 84.13,88.595 c -0.136,1.2325 -0.2721,2.4655 -0.4082,3.6986 -0.8983,-5.4071 -0.6823,-9.0306 -3.1708,-13.874 -1.859,-2.154 -4.1477,-4.1139 -6.7691,-5.1627 0.2213,-1.328 0.2874,-2.1577 0.159,-3.1314 -0.4618,-3.5022 -7.4679,-1.9551 -10.35,-1.8156 4.6239,-1.1906 9.2478,-2.3808 13.871,-3.5714 1.0418,0.4167 2.0835,0.8334 3.1255,1.2501 0.3473,2.014 0.6945,4.0283 1.0418,6.0423 0.9722,1.8057 1.9448,3.6116 2.9168,5.417 0.1735,1.1115 0.3473,2.2227 0.521,3.3338 -0.3126,2.6045 -0.625,5.209 -0.9377,7.8135"
         id="path149" />
      <path
         d="m 76.317,119.12 c -0.1454,-2.6291 -0.3152,-3.7253 0.8442,-6.0474 1.474,-2.9515 3.2842,-5.7243 4.8858,-8.6414 0.1734,1.9448 0.3469,3.8894 0.5207,5.8339 -2.0835,2.9518 -4.167,5.9035 -6.2507,8.8549"
         id="path151" />
      <path
         d="m 54.931,99.258 c -0.451,-0.9599 -0.902,-1.92 -1.353,-2.8798 1.2413,-4.1808 2.3445,-6.8292 4.7081,-10.482 -0.4116,-1.48 -0.7197,-2.1274 -1.6668,-3.3336 -2.0801,0.3201 -3.9271,0.4125 -6.0347,0.4062 2.327,-1.8056 4.6537,-3.6113 6.9801,-5.4173 1.1457,0.2084 2.2918,0.4167 3.4378,0.6251 1.1458,1.146 2.2918,2.2918 3.4379,3.4378 -1.6325,2.5351 -3.2644,5.0701 -4.8963,7.6051 -1.5378,3.346 -3.0756,6.6923 -4.6131,10.038"
         id="path153" />
      <path
         d="m 175.77,150.67 c 1.4168,-6.3754 3.2443,-12.258 3.0748,-18.787 -0.2081,-8.0104 -1.7694,-18.129 -9.1914,-22.96 -8.3117,-5.4096 -18.069,-2.851 -27.188,-0.5332 3.7159,-1.5278 7.4316,-3.0554 11.147,-4.5836 3.4727,-0.1737 6.9454,-0.3472 10.418,-0.521 2.3616,0.6948 4.7228,1.3893 7.0841,2.0835 1.8405,1.5281 3.6811,3.056 5.5213,4.5839 1.389,2.9168 2.778,5.834 4.1672,8.7508 0.5208,3.3687 1.0418,6.7371 1.5625,10.105 -0.4167,3.2993 -0.8334,6.598 -1.2501,9.8969 -0.7639,3.2644 -1.5281,6.5288 -2.2918,9.7926 -1.0176,0.724 -2.0353,1.4477 -3.0532,2.1716"
         id="path155" />
      <path
         d="m 51.734,131.67 c -3.7735,-2.4559 -5.2555,-3.5342 -4.8419,-8.0858 0.3759,-1.3632 0.752,-2.7267 1.1282,-4.0898 0.5326,-0.3606 1.0655,-0.7209 1.5982,-1.0815 0.6582,-0.2191 1.3164,-0.4385 1.9746,-0.6579 1.1908,0.2821 2.3817,0.5641 3.5728,0.8462 0.6111,1.8961 1.2223,3.7921 1.8334,5.6882 -1.6925,-0.8305 -3.3848,-1.6611 -5.0771,-2.4916 h -1.1753 c -0.4388,0.6738 -0.8776,1.3476 -1.3164,2.0214 0.5329,0.7835 1.0656,1.567 1.5985,2.3505 0.282,1.4887 0.5641,2.9775 0.8461,4.4659 0.3603,-0.1097 0.7209,-0.2191 1.0812,-0.3288 0.4388,-0.345 0.8776,-0.6896 1.3164,-1.0343 -0.0627,0.7835 -0.1253,1.567 -0.1882,2.3505 -0.2977,0.5014 -0.5953,1.0028 -0.8932,1.5043 -0.2977,0.2509 -0.5953,0.5014 -0.8932,0.7523 -0.188,-0.7367 -0.3759,-1.4732 -0.5641,-2.2096"
         id="path157" />
      <path
         d="m 136.39,167.53 c 3.3486,-3.1096 7.4591,-5.8127 10.138,-9.6132 1.0366,-1.4714 2.1886,-2.2237 -0.0176,-4.3015 2.3309,0.6658 3.1969,0.5935 5.0627,0.3673 3.3942,-0.4107 6.5755,-5.2356 6.7785,-8.6933 -0.04,-0.3234 -0.9428,-1.0573 -3.5672,-1.7818 -0.0521,-0.1009 -1.4811,0.1956 -1.4456,0.0989 0.2727,-0.7463 0.6372,-0.8606 1.1936,-1.2098 0.1208,-0.83 0.1985,-2.1098 0.7637,-3.0172 1.6515,0.0289 3.2652,-0.1508 4.8824,-0.4711 0.5442,-0.9026 0.462,-1.8051 0.4167,-2.7085 0.625,0.104 1.2501,0.2083 1.8751,0.3124 -0.1738,1.4241 -0.3472,2.8476 -0.5207,4.2712 0.5553,0.9377 1.1109,1.8754 1.6667,2.8128 -0.799,1.8057 -1.5976,3.6114 -2.3961,5.4173 -1.5281,1.4584 -3.056,2.9169 -4.5839,4.3756 -0.1468,0.007 -0.2945,0.0147 -0.4413,0.0218 -1.7184,1.0548 -3.4365,2.109 -5.1546,3.1635 -2.8026,2.2929 -5.6052,4.5861 -8.4078,6.8791 -2.0809,1.3589 -4.1615,2.7178 -6.2422,4.0765"
         id="path159" />
      <path
         d="m 142.03,141.87 c -0.1766,-0.309 -0.4434,-0.8028 -0.7852,-1.1447 1.3949,-1.3195 2.0831,-2.203 2.5803,-4.0691 -1.5769,-0.7829 -3.1535,-1.5658 -4.7304,-2.3488 -1.3343,-1.279 -2.6686,-2.5582 -4.0028,-3.8372 -1.7561,0.9453 -2.1938,1.6713 -3.0436,3.4735 -0.9896,-0.2619 -1.9273,-0.5142 -2.7445,-0.2143 0.5185,-0.004 0.8371,0.1256 1.355,0.4459 0.8492,0.8822 1.6982,1.7643 2.5472,2.6465 1.4998,1.1358 2.9996,2.2716 4.4991,3.4072 0.9814,0.32 1.963,0.6398 2.9444,0.9595 0.3747,0.1542 1.0054,0.527 1.3805,0.6815"
         id="path161" />
      <path
         d="m 146.39,137.16 c -5.0168,-2.7012 -9.8218,-5.4179 -12.387,-10.548 0,6.5117 6.5381,9.3781 12.387,10.548"
         id="path163" />
      <path
         d="m 133,149.97 c -3.725,-2.5399 -6.3592,-7.6655 -6.0281,-12.661 -1.2135,4.3254 -0.7835,8.4127 2.9423,11.4 0.6288,0.3056 1.2572,0.6112 1.8856,0.9167 0.4003,0.1146 0.8003,0.2291 1.2002,0.3439"
         id="path165" />
    </g>
    <path
       d="m 140.12,111.41 c 0.7699,0.419 2.1676,0.9952 2.9375,1.4142 -0.792,-0.1338 -2.2119,-0.4249 -3.0039,-0.5584 -2.1155,-0.3572 -2.3643,-0.8657 -2.6926,-2.9486 -0.1548,-0.9808 -0.3679,-2.1977 -0.5227,-3.1788 0.4147,1.1092 0.9136,2.3984 1.3969,3.4563 0.5114,1.1188 0.7994,1.2243 1.8848,1.8153 z m -39.252,53.643 c 1.6625,2.4937 2.6197,3.3049 5.178,4.8847 -3.4738,-0.8368 -4.136,-1.48 -5.178,-4.8847 z m -0.5471,-5.4938 c 2.9092,5.8484 5.112,8.0019 11.203,10.874 -6.8893,-1.6886 -8.9144,-2.8894 -11.203,-10.874 z m -62.3,-30.441 c 0.6384,2.9285 1.2334,4.0332 3.039,6.4372 -2.929,-2.0463 -3.3108,-2.8868 -3.039,-6.4372 z m 65.209,-49.014 c -0.0881,0.7106 -0.1766,1.4218 -0.2653,2.1325 -0.1596,1.2875 -0.1533,2.3338 -0.0507,3.6298 0.0989,1.2543 0.1973,2.5086 0.2959,3.7632 -0.3654,-1.275 -1.0956,-2.55 -1.4607,-3.825 -0.146,-0.5103 -0.267,-0.923 -0.3362,-1.3045 -5.4513,-1.1138 -10.863,-1.1835 -16.316,-0.2107 -0.3478,2.0186 -0.7713,4.1222 -1.1265,5.6299 -0.1077,-1.6889 -0.0383,-6.3578 -0.0471,-8.9719 -0.0068,-2.0256 -0.0921,-2.719 -1.1364,-4.4419 -0.9779,-1.6132 -1.3921,-1.9791 -2.7609,-4.7044 0.1137,-1.7195 0.1159,-2.8567 -0.341,-4.4889 -0.76,-2.7131 -8.4246,-0.6109 -10.447,-0.0573 -2.49,0.6815 -7.638,1.6946 -6.3434,5.0142 1.1395,2.9214 1.8615,6.0015 2.4182,10.09 -4.562,6.5718 -8.8049,15.578 -9.6188,23.558 -0.6321,6.1962 -0.2528,10.01 1.088,13.8 2.1245,6.0049 5.0964,11.203 9.8657,15.389 6.4329,5.6446 12.447,7.912 21.862,9.345 -2.2641,-2.5345 -4.5043,-5.2149 -6.946,-8.0887 -2.4718,-2.9098 -3.9408,-5.8484 -5.51,-9.0306 -2.1682,-4.3954 -2.1218,-6.0679 0.7526,-9.9264 2.4769,-3.3253 3.814,-4.8226 4.8954,-8.0759 -0.8932,-1.8411 -1.2178,-3.3967 -1.5182,-5.9108 3.0328,-3.3148 5.2863,-5.5865 8.2309,-6.2864 2.8883,-0.6865 5.3005,-0.5533 7.8843,0.7674 5.7393,2.9344 11.05,6.7229 17.524,6.8796 2.9951,7.3636 2.6924,13.516 1.2543,20.64 -0.9819,4.8654 -1.3756,9.4723 -1.6812,14.433 -1.2143,-5.1083 -1.442,-9.6006 -0.5414,-14.689 1.0862,-6.1322 1.9304,-12.907 -1.0908,-18.296 -5.8538,-0.4482 -10.871,-4.0096 -16.147,-6.7422 -2.1206,-1.0988 -4.3286,-1.2056 -6.6762,-0.5613 -2.179,0.5984 -3.6493,2.0398 -5.9967,4.7472 -0.0366,2.7181 0.5766,3.9727 1.8247,6.4341 2.0055,3.9531 4.2193,7.6328 6.6483,11.523 -2.9746,-3.5907 -5.7926,-6.59 -8.1337,-10.2 -0.8949,2.5497 -2.1742,3.844 -4.2939,6.7147 -2.0704,2.8037 -2.2873,4.0317 -0.7393,7.2762 1.5565,3.2607 2.8766,6.1268 5.5259,8.9873 4.5776,4.9433 8.7709,10.445 13.777,15.313 2.7179,2.6433 3.8214,2.552 7.4268,3.0985 3.2584,0.4938 6.4403,1.1175 9.7636,1.8896 -3.2142,-0.2996 -6.3209,-0.4099 -9.4498,-0.4875 -0.0326,-9e-4 -0.0646,-0.002 -0.097,-0.002 3.0785,3.9316 4.8651,6.1223 9.8649,8.2947 12.31,5.3465 20.132,5.9247 29.802,-2.2039 2.5061,-2.1067 4.695,-4.1519 7.2363,-5.9695 -0.9213,-0.0788 -1.7153,-0.244 -2.7655,-0.6565 1.2781,0.2435 2.7541,0.002 4.0804,-0.2404 0.3725,-0.2415 0.7549,-0.477 1.1472,-0.7083 1.7935,-1.0568 2.8117,-1.6405 4.0249,-3.331 1.2824,-1.7864 2.3511,-3.5714 3.2933,-5.5389 -0.6174,0.2205 -1.135,0.407 -1.5964,0.5442 -0.3396,0.1556 -0.709,0.2585 -1.1007,0.2962 -0.7759,0.0746 -1.5183,-0.1162 -2.1368,-0.4969 -0.0249,-0.0116 -0.0496,-0.0229 -0.0748,-0.0351 -0.9922,-0.483 -2.5294,-1.0338 -3.5581,-1.2008 0.5244,-0.1811 1.6849,-0.2489 2.2323,-0.0323 0.0734,0.0292 0.148,0.0513 0.2245,0.0697 -0.2469,-0.4201 -0.4082,-0.8974 -0.4578,-1.4128 -0.0657,-0.6834 0.0732,-1.3393 0.3671,-1.9088 l 0.003,-0.006 c 0.093,-0.2185 0.222,-0.4203 0.364,-0.5655 -0.4705,-0.1729 -0.9502,-0.371 -1.4448,-0.5859 2.2938,0.3495 4.3622,0.4096 6.6013,0.1145 0.1477,-0.7058 0.2965,-1.4536 0.4343,-2.2144 -0.2775,-0.0221 -0.5542,-0.0431 -0.8314,-0.0649 -0.0224,-0.002 -0.0451,-0.004 -0.0675,-0.006 -1.0593,0.8467 -2.2396,0.7044 -3.852,0.3364 -4.9034,-1.1182 -3.7511,-3.8698 -6.0072,-8.0155 2.3423,2.8633 2.1688,5.8589 5.9857,6.7629 0.8895,0.2106 1.495,0.474 2.097,0.3835 -1.0836,-0.5451 -2.0211,-1.4485 -2.3927,-2.4976 -1.0477,-2.9585 -0.3971,-5.4513 -1.548,-8.2145 1.4258,2.4701 1.5117,4.881 2.7865,7.4798 0.4578,0.9337 2.1571,2.4281 3.2003,2.4511 0.2863,0.006 0.572,0.0122 0.8586,0.0184 0.2514,-1.6446 0.4042,-3.2771 0.3067,-4.6315 -0.1777,-2.4712 -0.8198,-6.1393 -1.2041,-7.5427 1.2914,1.66 1.8796,5.1761 2.4468,7.651 0.5908,2.5775 0.4417,5.6701 -0.0754,8.4387 -0.7095,3.799 3.2029,3.1811 5.4743,4.9714 1.6696,1.3164 2.8188,3.418 4.3497,4.9068 1.5186,1.4763 3.9087,-0.6931 4.5057,-2.1365 2.59,-6.2651 3.7698,-16.122 3.0858,-22.438 -0.7676,-7.0869 -4.191,-14.824 -10.442,-18.313 -7.9682,-4.4473 -17.364,-1.7302 -25.28,0.9369 -1.6897,0.5692 -2.8647,1.3989 -4.3501,2.3346 0.4045,-1.821 0.5882,-3.7483 0.0502,-5.567 -0.8541,-2.8854 -2.2334,-7.6065 1.6844,-8.4773 1.491,-0.3313 2.1671,-0.2834 4.2723,0.8028 -1.7039,-0.3852 -2.5628,-0.2908 -3.7338,-0.0745 -1.0612,0.1955 -1.6239,0.8699 -1.9204,1.6647 0.3707,-0.2678 0.9754,-0.4135 2.0086,-0.6624 2.9044,-0.6999 5.6721,0.6979 6.2133,2.7122 0.3157,1.1766 0.2619,1.7946 0.9306,3.3979 0.6006,-0.1851 1.2223,-0.3546 1.8595,-0.5086 -0.3594,-1.1727 -0.7194,-2.3468 -1.0791,-3.5195 -0.9335,-3.0449 -4.5701,-5.5003 -7.7814,-5.4439 -2.9685,0.0527 -4.8504,1.9122 -6.8996,3.7352 -1.4119,1.2563 -2.7705,2.4582 -4.1173,3.6485 -3.6944,1.1656 -6.6557,2.5279 -10.084,5.0663 2.44,-2.8678 4.0955,-4.4552 7.4985,-5.8821 -0.4952,-5.0483 -2.2496,-8.729 -3.7454,-13.56 -0.6767,-2.185 -6.0214,-10.938 -7.5025,-11.792 -1.0562,-0.6083 -7.6711,-6.1803 -8.9158,-6.9151 -0.9267,-1.2311 -1.7402,-2.9316 -3.1334,-3.668 -4.2458,-2.245 -6.9741,2.0537 -9.2591,5.6846 -1.0406,1.654 -3.9291,6.4179 -1.4108,7.7525 2.3811,1.2614 3.7145,2.1622 6.1438,3.757 0.3569,-0.6505 0.9697,-1.2781 1.3688,-1.9281 z m 14.76,-7.6972 c -2.1495,-1.7365 -5.7642,-4.8104 -6.4655,-5.1954 -1.2699,-1.8955 -1.4267,-3.0685 -3.4611,-4.1697 -6.0562,-3.2771 -9.2704,0.5235 -12.855,6.0483 -1.7082,2.6325 -5.4431,8.6428 -1.4797,10.68 1.6699,0.8584 2.9356,1.5018 4.1981,2.2371 -4.1579,-0.5159 -8.2386,-0.5221 -12.482,0.1163 0.0751,-0.512 0.1406,-0.9992 0.1936,-1.446 0.2758,-2.3184 0.3663,-3.0294 -0.8932,-4.8974 -0.9181,-1.3623 -1.2719,-1.7566 -2.3808,-4.2316 0.2018,-2.012 0.1142,-3.1444 -0.4535,-5.2517 -1.262,-4.6831 -10.007,-2.1161 -13.571,-1.1523 -4.2877,1.1594 -10.414,2.2391 -7.9005,7.7516 0.5891,1.2915 1.0517,2.6124 1.3998,3.8722 -3.7491,-1.6594 -8.9592,1.8606 -11.441,4.3483 -2.3602,2.3664 -3.6423,5.1143 -4.089,7.7808 -0.3804,2.2694 -0.0321,2.2584 1.5874,3.8628 1.4816,1.4666 2.9627,2.935 4.4439,4.4008 0.5981,1.6282 1.1973,3.255 1.7951,4.8821 -0.233,1.2155 -0.4062,2.4279 -0.5094,3.6286 -0.4303,5.0063 -0.2857,8.5714 0.4295,11.849 -2.6087,-1.0179 -5.6021,-0.5411 -6.9335,2.2275 -0.5063,1.0525 -0.8079,2.1246 -1.1903,3.6811 -5.8193,5.6069 5.0859,12.957 8.2672,13.51 -0.3637,-1.0335 -0.7622,-1.9789 -1.1129,-2.9163 2.1575,-1.1169 1.893,-4.2993 1.4349,-6.3482 -0.7761,0.9794 -1.205,2.2601 -2.3465,2.3151 -0.1672,-2.3171 -0.1383,-4.8776 -1.9479,-6.238 0.5357,-1.432 0.5076,-1.4332 2.0301,-0.8478 2.1623,0.8325 3.7905,2.687 5.4284,4.4969 1.764,3.4361 4.0252,6.4927 7.1359,9.2506 7.6442,6.7773 14.87,8.9946 26.504,10.849 1.5486,1.6161 3.149,3.1754 4.8668,4.6916 2.3273,2.0537 3.8384,2.4801 6.0395,2.5949 3.6423,4.8719 6.5081,8.2647 12.446,10.764 12.447,5.2392 21.027,5.4918 31.017,-2.7457 3.3015,-2.7218 6.1171,-5.5902 9.7455,-7.8624 1.8362,-1.1498 3.1484,-1.9763 4.5405,-3.6341 1.7507,-2.0862 3.1805,-4.1725 4.1757,-6.8578 1.2858,0.5292 2.7522,1.0278 3.9362,2.0398 1.5287,1.3062 2.5013,3.4926 3.9172,4.9278 1.8794,1.9045 6.1665,-0.3946 7.1158,-2.2116 3.2287,-6.179 4.5496,-17.567 3.8634,-24.339 -0.8482,-8.3713 -4.2991,-16.285 -11.674,-20.221 -5.0148,-2.6756 -11.745,-2.9248 -17.505,-1.836 -0.3733,-1.2283 -0.7452,-2.4565 -1.1185,-3.6848 -1.12,-3.6805 -5.4919,-6.6889 -9.311,-6.8694 -3.6669,-0.173 -5.6546,1.7195 -8.0595,4.0359 -1.2617,1.2155 -2.5242,2.4302 -3.7859,3.6457 -0.0734,-0.828 -0.1817,-1.622 -0.3181,-2.3905 0.9933,-1.9613 1.4704,-3.6856 2.3205,-5.7075 0.9354,-2.2267 1.3907,-3.6882 1.455,-6.0713 0.0564,-2.1155 0.1131,-4.2316 0.1698,-6.347 0.9436,-1.6765 1.0261,-2.0844 0.8887,-4.0029 -0.2906,-4.0433 -2.5175,-4.4291 -6.2289,-4.4058 -1.2365,0.0079 -5.9037,-0.021 -7.0934,0.0649 -2.365,0.1709 -3.924,0.3515 -4.739,1.3283 z m 12.514,22.057 c -0.7466,-2.6662 -1.7501,-5.1831 -2.6662,-8.0679 -0.8669,-2.7309 -5.3133,-10.661 -7.9305,-12.583 0.5094,-0.3793 1.4445,-0.5279 3.1101,-0.6716 1.1784,-0.1017 5.8241,-0.1233 6.9906,-0.1434 2.5681,-0.0448 3.5427,0.1482 3.8024,3.0725 0.1269,1.4315 0.015,1.6991 -0.7011,2.954 -0.0635,2.2382 -0.1269,4.477 -0.1899,6.7152 -0.0598,2.122 -0.4671,3.3443 -1.3014,5.3218 -0.4994,1.1835 -0.7704,2.2881 -1.114,3.4021 z m -78.224,36.628 c 0.5765,0.0655 0.9331,-0.237 1.379,-0.6826 -0.0825,1.0647 -0.2792,1.8541 -1.0267,2.2893 -0.0524,-0.1732 -0.1017,-0.3461 -0.1482,-0.5219 -0.0905,-0.3427 -0.1551,-0.7067 -0.2041,-1.0848 z m 3.6224,-7.6927 c -0.415,-1.0737 -0.8,-2.1804 -1.1625,-3.3239 -0.0601,-0.189 -0.1177,-0.3793 -0.1738,-0.5686 -2.1929,-0.9301 -5.0763,-1.5211 -6.1801,0.7835 -0.536,1.1185 -0.8385,2.2161 -1.2294,3.63 -3.6113,3.7412 1.787,8.6803 4.7274,10.452 -0.4255,-0.9147 -0.7277,-1.6072 -0.934,-2.3201 -0.8941,-3.0898 0.4047,-5.8473 -2.3996,-8.0873 1.3179,-2.6594 1.2572,-3.7199 4.3234,-2.491 1.1829,0.4739 2.1583,1.1392 3.0286,1.9255 z m -0.845,-25.177 c 1.6622,-5.7487 4.4929,-11.397 7.6311,-16.146 -3e-4,-0.0275 -6e-4,-0.0547 -8e-4,-0.0827 -0.1965,-0.8164 -0.4241,-1.6121 -0.9009,-2.2507 -2.243,-3.0008 -7.9489,1.4042 -9.6004,3.0903 -1.8054,1.8434 -3.0138,4.0266 -3.3015,6.0738 -0.2092,1.4936 -0.0062,1.5298 1.0358,2.5863 1.4043,1.4216 2.81,2.8443 4.2137,4.2656 0.3073,0.8215 0.6157,1.6421 0.923,2.4633 z m 106.22,46.141 c 0.32,-0.3163 0.5782,-0.693 0.7563,-1.1097 0.0969,0.089 0.2007,0.1732 0.3092,0.2531 -0.1315,0.2962 -0.2653,0.5882 -0.4019,0.8759 -0.2274,-0.005 -0.4482,-0.0113 -0.6636,-0.0193 z m -27.476,-10.34 c -0.2925,0.6134 -0.4325,1.2606 -0.4376,1.8998 -1.0766,-0.86 -2.2471,-1.6753 -3.4617,-2.1464 1.677,1.4976 3.9549,5.0295 5.6055,6.1444 1.8731,1.2657 4.4152,1.0193 6.5991,2.0296 -0.7456,-0.6775 -1.7011,-1.2234 -2.674,-1.743 1.0718,-0.3923 1.9979,-1.186 2.5263,-2.2938 0.2228,-0.4672 0.356,-0.955 0.4099,-1.4431 1.4672,0.4819 2.908,0.71 4.1249,0.6925 -4.3531,-1.222 -8.9835,-4.0799 -12.176,-7.8645 0.3586,0.987 0.8598,1.8777 1.4635,2.6731 -0.8367,0.4374 -1.5431,1.1367 -1.9797,2.0514 z m -20.187,15.748 c -2.4038,-0.938 -4.5964,-1.6418 -6.9398,-2.2306 -2.1382,-2.8102 -3.4407,-4.2661 -3.9328,-8.0328 -0.5788,3.7055 -0.6993,4.3934 0.9499,7.1592 -0.4779,-0.2429 -0.9224,-0.5769 -1.5593,-1.1214 -2.304,-1.9701 -5.3073,-9.7121 -6.5081,-12.48 0.7622,3.3316 3.1465,11.659 5.6021,14.086 1.6149,1.5965 1.9811,1.5599 4.2582,1.7753 2.7122,0.2571 5.419,0.5375 8.1298,0.8439 z m 50.174,-8.0782 c 1.95,-0.1845 3.0649,-0.4855 4.811,0.3782 3.2547,1.6106 5.6495,4.24 7.2023,7.3848 -0.9499,-3.7519 -2.8616,-6.9401 -6.827,-8.3543 -1.9474,-0.6939 -3.2031,0.0227 -5.1863,0.5913 z m -37.425,-0.3665 c 0.7347,3.2536 2.0392,6.3885 7.0923,8.8138 -6.6975,-1.677 -7.9532,-4.4898 -7.0923,-8.8138 z m -86.844,-17.522 c 0.5746,6.5067 1.84,9.3155 6.463,14.212 -5.7986,-4.0858 -7.2456,-5.9425 -6.463,-14.212"
       id="path169" />
    <path
       d="m 134.67,132.97 c -0.4476,0.936 -0.0474,2.0639 0.8909,2.5104 0.9385,0.447 2.0687,0.0476 2.5163,-0.889 0.0425,-0.0887 0.0763,-0.18 0.1038,-0.2715 -0.8961,-0.6647 -1.7178,-1.4485 -2.4064,-2.3562 -0.4643,0.1865 -0.8747,0.5256 -1.1046,1.0063"
       fill="#edd749"
       id="path171" />
    <path
       d="m 155.64,141.08 c 0.0749,0.7755 0.7362,1.3473 1.5115,1.2724 0.7752,-0.0751 1.3476,-0.7681 1.273,-1.5437 -0.0159,-0.165 -0.0606,-0.3198 -0.1275,-0.4623 -0.7098,-0.1208 -1.4194,-0.3291 -2.1507,-0.5979 -0.3059,0.313 -0.5493,0.8844 -0.5063,1.3315"
       fill="#edd749"
       id="path173" />
  </g>
  <metadata
     id="metadata1000">
    <rdf:RDF>
      <cc:Work
         rdf:about="">
        <dc:title>Hadoop logo</dc:title>
      </cc:Work>
    </rdf:RDF>
  </metadata>
</svg>
